<svg width="18" height="19" viewBox="0 0 18 19" fill="none" xmlns="http://www.w3.org/2000/svg">
<g id="line">
<path id="Vector" d="M15.8726 17.8206H11.0034V11.6087H14.9452V12.3128H15.8726V17.8206Z" stroke="#1A1A1A" stroke-miterlimit="10" stroke-linecap="round" stroke-linejoin="round"/>
<path id="Vector_2" d="M12.0715 10.4543H17.0133V16.6663" stroke="#1A1A1A" stroke-miterlimit="10" stroke-linecap="round" stroke-linejoin="round"/>
<path id="Vector_3" d="M11.9849 16.2385H14.7958" stroke="#1A1A1A" stroke-miterlimit="10" stroke-linecap="round" stroke-linejoin="round"/>
<path id="Vector_4" d="M9.89987 16.0431L7.98657 16.7692" stroke="#1A1A1A" stroke-miterlimit="10" stroke-linecap="round" stroke-linejoin="round"/>
<path id="Vector_5" d="M11.9849 15.0438H14.7958" stroke="#1A1A1A" stroke-miterlimit="10" stroke-linecap="round" stroke-linejoin="round"/>
<path id="Vector_6" d="M11.9849 13.6783H14.7958" stroke="#1A1A1A" stroke-miterlimit="10" stroke-linecap="round" stroke-linejoin="round"/>
<path id="Vector_7" d="M6.1516 13.6783C6.1516 13.6783 5.7495 15.6854 6.9207 15.6854C8.0919 15.6854 7.6898 13.6783 7.6898 13.6783" stroke="#1A1A1A" stroke-miterlimit="10" stroke-linecap="round" stroke-linejoin="round"/>
<path id="Vector_8" d="M0.608317 16.7954C0.608317 16.7954 -0.0583496 12.462 3.94165 12.462C5.00562 13.1713 5.91712 13.6615 6.94165 13.6594H6.89998C7.92452 13.6615 8.83602 13.1713 9.89998 12.462" stroke="#1A1A1A" stroke-miterlimit="10" stroke-linecap="round" stroke-linejoin="round"/>
<path id="Vector_9" d="M9.90005 12.462L8.00941 16.767L7.20435 15.6854" stroke="#1A1A1A" stroke-miterlimit="10" stroke-linecap="round" stroke-linejoin="round"/>
<path id="Vector_10" d="M6.63739 15.6854L5.83232 16.767L3.94169 12.462L2.62256 15.2899L5.77516 16.767" stroke="#1A1A1A" stroke-miterlimit="10" stroke-linecap="round" stroke-linejoin="round"/>
<path id="Vector_11" d="M14.9451 11.6087L15.8725 12.3128" stroke="#1A1A1A" stroke-miterlimit="10" stroke-linecap="round" stroke-linejoin="round"/>
<path id="Vector_12" d="M6.98431 9.84973C6.58414 9.84586 6.19054 9.7479 5.83524 9.56376C5.67057 9.48143 5.60381 9.2812 5.68614 9.1165C5.76847 8.9518 5.96871 8.88506 6.13341 8.9674C6.66454 9.25383 7.30411 9.25383 7.83524 8.9674C7.99991 8.88506 8.20014 8.9518 8.28251 9.1165C8.36487 9.2812 8.29811 9.4814 8.13341 9.56376C7.77811 9.7479 7.38447 9.84586 6.98431 9.84973Z" fill="#1A1A1A"/>
<path id="Vector_13" d="M8.98421 6.5156C8.98421 6.88381 8.68575 7.18227 8.31755 7.18227C7.94935 7.18227 7.65088 6.88381 7.65088 6.5156C7.65088 6.1474 7.94935 5.84894 8.31755 5.84894C8.68568 5.84907 8.98408 6.14747 8.98421 6.5156Z" fill="#1A1A1A"/>
<path id="Vector_14" d="M6.31771 6.5156C6.31771 6.88381 6.01924 7.18227 5.65104 7.18227C5.28284 7.18227 4.98438 6.88381 4.98438 6.5156C4.98438 6.1474 5.28284 5.84894 5.65104 5.84894C6.01918 5.84907 6.31758 6.14747 6.31771 6.5156Z" fill="#1A1A1A"/>
<path id="Vector_15" d="M3.66659 9.6936C2.33325 9.6936 2.33325 7.6936 2.33325 5.36027C2.33325 3.02694 3.66659 0.693604 6.99992 0.693604C10.3333 0.693604 11.6666 3.02694 11.6666 5.36027C11.6666 7.6936 11.6666 9.6936 10.3333 9.6936" stroke="#1A1A1A" stroke-linecap="round" stroke-linejoin="round"/>
<path id="Vector_16" d="M3.31226 7.02694C3.31226 10.0269 4.95776 11.6936 6.97892 11.6936C8.95776 11.6936 10.6668 10.0269 10.6668 7.02694C10.6749 6.45404 10.5613 5.88597 10.3334 5.36027C9.33342 4.36027 8.00009 2.6936 8.00009 2.6936C6.66676 3.6936 5.66676 4.6936 3.66676 5.0271C3.66676 5.0271 3.31226 5.36 3.31226 7.02694Z" stroke="#1A1A1A" stroke-linejoin="round"/>
</g>
</svg>
