<svg width="73" height="72" viewBox="0 0 73 72" fill="none" xmlns="http://www.w3.org/2000/svg">
<path d="M15.9579 50.2V42.06C15.6979 40.13 17.0579 38.35 18.9979 38.1C20.9279 37.84 22.6979 39.2 22.9579 41.13C22.9979 41.44 22.9979 41.75 22.9579 42.06V47.4523" stroke="#1A1A1A" stroke-width="2" stroke-linecap="round" stroke-linejoin="round"/>
<path d="M56.9614 39.1758C57.6659 41.2118 58.0457 43.3439 58.0457 45.6317C58.0457 56.7159 49.0602 65.7015 37.9759 65.7015C32.9197 65.9663 26.8539 63.2271 22.4681 59.8957C20.5652 58.0357 18.7217 56.2421 17.541 54.8453C16.741 54.2453 16.1168 52.3842 16.0293 50.4227" stroke="#1A1A1A" stroke-width="2" stroke-linecap="round" stroke-linejoin="round"/>
<path d="M34.1811 42.2163C32.8557 46.0531 32.9326 48.3399 30.8825 49.3975C26.9706 48.0181 22.9578 47.4522 22.9578 47.4522" stroke="#1A1A1A" stroke-width="2" stroke-linecap="round" stroke-linejoin="round"/>
<path d="M28.5301 35.1099L19.6505 36.4099C17.7605 36.9299 15.8205 35.8199 15.3105 33.9299C14.8005 32.0499 15.9105 30.1099 17.7905 29.5999C18.0905 29.5199 18.4005 29.4799 18.7205 29.4799L28.8001 28.0099C29.4501 27.8899 30.0801 27.9299 30.6701 28.1199" stroke="#1A1A1A" stroke-width="2" stroke-linecap="round" stroke-linejoin="round"/>
<path d="M34.181 42.2163L28.53 35.1099" stroke="#1A1A1A" stroke-width="2" stroke-linecap="round" stroke-linejoin="round"/>
<path d="M30.6702 28.1199C31.3702 28.2199 32.0402 28.5199 32.5902 29.0299C32.8202 29.2399 33.0202 29.4799 33.1802 29.7499L39.4493 37.1819" stroke="#1A1A1A" stroke-width="2" stroke-linecap="round" stroke-linejoin="round"/>
<path d="M31.8925 24.1468L26.56 15.01C25.38 13.46 25.69 11.24 27.24 10.07C28.79 8.89002 31.01 9.19002 32.19 10.74C32.35 10.95 40.3 24.31 42.9 28.67V28.68" stroke="#1A1A1A" stroke-width="2" stroke-linecap="round" stroke-linejoin="round"/>
<path d="M50.9605 31.1911C49.5405 25.5311 45.3201 9.54994 45.2301 9.31994C44.5501 7.48994 42.5201 6.55994 40.6901 7.23994C38.8601 7.92994 37.9401 9.95994 38.6201 11.7899L40.3328 18.5445" stroke="#1A1A1A" stroke-width="2" stroke-linecap="round" stroke-linejoin="round"/>
<path d="M42.3254 27.792L45.9061 33.4467" stroke="#1A1A1A" stroke-width="2" stroke-linecap="round" stroke-linejoin="round"/>
<path d="M50.2502 17.9698C50.0602 16.0198 51.4802 14.2998 53.4202 14.1098C55.3602 13.9198 57.0902 15.3398 57.2802 17.2798C57.3102 17.5898 56.9802 38.6198 56.9802 38.6198C56.9802 38.8098 56.9802 38.9898 56.9502 39.1698" stroke="#1A1A1A" stroke-width="2" stroke-linecap="round" stroke-linejoin="round"/>
</svg>
