<svg width="30" height="24" viewBox="0 0 30 24" fill="none" xmlns="http://www.w3.org/2000/svg">
<g id="line">
<path id="Vector" d="M8.23171 9.52047L6.58318 11.3423C6.88669 7.91687 9.09078 4.96212 12.3444 3.78078C13.2917 3.43678 14.2786 3.26243 15.2776 3.26243C17.7144 3.26243 20.06 4.31798 21.7121 6.15847L21.9832 6.46047L23.6972 4.85674L23.4261 4.55474C21.3348 2.22505 18.3656 0.888916 15.2792 0.888916C14.0138 0.888916 12.7641 1.10949 11.5656 1.54469C7.4734 3.03069 4.64984 6.80167 4.26242 11.1374L2.79958 9.52047L1.31335 10.9056L5.5154 15.5501L9.71704 10.906L8.23171 9.52047Z" stroke="#1A1A1A" stroke-miterlimit="10" stroke-linecap="round" stroke-linejoin="round"/>
<path id="Vector_2" d="M28.7778 13.0433L24.5757 8.39874L20.3741 13.0429L21.8595 14.4284L23.5009 12.6144C23.2124 16.0584 21.0027 19.0331 17.7352 20.2197C16.7883 20.5633 15.8018 20.7376 14.802 20.7376C12.3652 20.7376 10.0196 19.6821 8.36756 17.8418L8.09645 17.5398L6.38245 19.1433L6.65356 19.4453C8.74445 21.7748 11.714 23.1111 14.8004 23.1111C16.0662 23.1111 17.3156 22.8903 18.514 22.4556C22.6243 20.9634 25.456 17.1656 25.8235 12.8057L27.2916 14.4284L28.7778 13.0433Z" stroke="#1A1A1A" stroke-miterlimit="10" stroke-linecap="round" stroke-linejoin="round"/>
</g>
</svg>
