<svg width="14" height="17" viewBox="0 0 14 17" fill="none" xmlns="http://www.w3.org/2000/svg">
<g id="line">
<path id="Vector" d="M0.666748 16.5V15.5C0.666748 13.8333 2.33341 12.5 4.00008 12.5C6.00008 14.1667 8.00008 14.1667 10.0001 12.5C11.6667 12.5 13.3334 13.8333 13.3334 15.5V16.5" stroke="#1A1A1A" stroke-linecap="round" stroke-linejoin="round"/>
<path id="Vector_2" d="M5.9668 9.23334C6.6668 9.5 7.33346 9.5 7.9668 9.23334" stroke="#1A1A1A" stroke-linecap="round" stroke-linejoin="round"/>
<path id="Vector_3" d="M8.96663 6.49998C8.96663 6.86665 8.66663 7.16665 8.29997 7.16665C7.9333 7.16665 7.6333 6.86665 7.6333 6.49998C7.6333 6.13331 7.9333 5.83331 8.29997 5.83331C8.66663 5.83331 8.96663 6.13331 8.96663 6.49998Z" fill="#1A1A1A"/>
<path id="Vector_4" d="M6.30013 6.49998C6.30013 6.86665 6.00013 7.16665 5.63346 7.16665C5.2668 7.16665 4.9668 6.86665 4.9668 6.49998C4.9668 6.13331 5.2668 5.83331 5.63346 5.83331C6.00013 5.83331 6.30013 6.13331 6.30013 6.49998Z" fill="#1A1A1A"/>
<path id="Vector_5" d="M3.66683 9.16667C2.66683 9.16667 2.3335 6.83333 2.3335 4.5C2.3335 2.5 4.00016 0.5 7.00016 0.5C10.0002 0.5 11.6668 2.5 11.6668 4.5C11.6668 6.83333 11.3335 9.16667 10.3335 9.16667" stroke="#1A1A1A" stroke-linecap="round" stroke-linejoin="round"/>
<path id="Vector_6" d="M8.96663 6.49998C8.96663 6.86665 8.66663 7.16665 8.29997 7.16665C7.9333 7.16665 7.6333 6.86665 7.6333 6.49998C7.6333 6.13331 7.9333 5.83331 8.29997 5.83331C8.66663 5.83331 8.96663 6.13331 8.96663 6.49998Z" fill="#1A1A1A"/>
<path id="Vector_7" d="M6.30013 6.49998C6.30013 6.86665 6.00013 7.16665 5.63346 7.16665C5.2668 7.16665 4.9668 6.86665 4.9668 6.49998C4.9668 6.13331 5.2668 5.83331 5.63346 5.83331C6.00013 5.83331 6.30013 6.13331 6.30013 6.49998Z" fill="#1A1A1A"/>
<path id="Vector_8" d="M3.30005 6.83335C3.26672 9.50002 4.93339 11.5 6.96672 11.5C8.96672 11.5 10.6667 9.50002 10.6667 6.83335C10.6667 5.16669 9.66672 3.16669 9.66672 3.16669C7.00005 3.16669 6.33339 4.16669 4.33339 3.50002C4.33339 3.50002 3.33339 5.16669 3.30005 6.83335Z" stroke="#1A1A1A" stroke-linejoin="round"/>
<path id="Vector_9" d="M5.9668 9.23334C6.6668 9.5 7.33346 9.5 7.9668 9.23334" stroke="#1A1A1A" stroke-linecap="round" stroke-linejoin="round"/>
</g>
</svg>
